<svg xmlns="http://www.w3.org/2000/svg" width="56" height="56" viewBox="0 0 56 56" fill="none"><g clip-path="url(#clip0_116_5121)"><path d="M37.0037 3.92879L34.7638 4.64629C33.6213 3.94449 32.3751 3.4277 31.0712 3.11504L29.995 1.02379C28.6724 0.825402 27.3276 0.825402 26.005 1.02379L24.9288 3.11504C23.6249 3.4277 22.3787 3.94449 21.2362 4.64629L18.9962 3.92879C17.9345 4.73679 16.9867 5.68453 16.1787 6.74629L16.8962 8.98629C16.1944 10.1287 15.6777 11.375 15.365 12.6788L13.2738 13.755C13.1801 14.416 13.1304 15.0825 13.125 15.75C13.1304 16.4176 13.1801 17.0841 13.2738 17.745L15.365 18.8213C15.6777 20.1251 16.1944 21.3713 16.8962 22.5138L16.1787 24.7538C16.9867 25.8156 17.9345 26.7633 18.9962 27.5713L21.2362 26.8538C22.3787 27.5556 23.6249 28.0724 24.9288 28.385L26.005 30.4763C27.3276 30.6747 28.6724 30.6747 29.995 30.4763L31.0712 28.385C32.3751 28.0724 33.6213 27.5556 34.7638 26.8538L37.0037 27.5713C38.0655 26.7633 39.0133 25.8156 39.8212 24.7538L39.1037 22.5138C39.8055 21.3713 40.3223 20.1251 40.635 18.8213L42.7263 17.745C42.82 17.0841 42.8696 16.4176 42.875 15.75C42.8696 15.0825 42.82 14.416 42.7263 13.755L40.635 12.6788C40.3223 11.375 39.8055 10.1287 39.1037 8.98629L39.8212 6.74629C39.0133 5.68453 38.0655 4.73679 37.0037 3.92879ZM28 24.5C26.2694 24.5 24.5777 23.9869 23.1388 23.0254C21.6998 22.0639 20.5783 20.6974 19.9161 19.0985C19.2538 17.4997 19.0805 15.7403 19.4181 14.043C19.7557 12.3457 20.5891 10.7866 21.8128 9.56286C23.0365 8.33915 24.5956 7.50579 26.293 7.16817C27.9903 6.83055 29.7496 7.00383 31.3485 7.6661C32.9473 8.32836 34.3139 9.44987 35.2754 10.8888C36.2368 12.3277 36.75 14.0195 36.75 15.75C36.75 16.8991 36.5237 18.0369 36.0839 19.0985C35.6442 20.1601 34.9997 21.1247 34.1872 21.9372C33.3747 22.7497 32.4101 23.3943 31.3485 23.834C30.2869 24.2737 29.1491 24.5 28 24.5Z" fill="#EA5501"></path><path d="M30.0125 12.5649L28.1925 8.86363C28.1737 8.8289 28.1459 8.79989 28.1121 8.77967C28.0782 8.75945 28.0394 8.74878 28 8.74878C27.9605 8.74878 27.9218 8.75945 27.8879 8.77967C27.854 8.79989 27.8262 8.8289 27.8075 8.86363L25.9875 12.5649C25.9723 12.5951 25.9501 12.6213 25.9227 12.6411C25.8953 12.6609 25.8635 12.6738 25.83 12.6786L21.7525 13.2736C21.7138 13.2796 21.6776 13.2962 21.6478 13.3217C21.6181 13.3472 21.5961 13.3804 21.5843 13.4177C21.5725 13.455 21.5713 13.4949 21.5809 13.5328C21.5905 13.5707 21.6106 13.6052 21.6387 13.6324L24.5875 16.5024C24.6103 16.5286 24.6275 16.5592 24.6381 16.5923C24.6486 16.6254 24.6522 16.6603 24.6487 16.6949L23.9487 20.7549C23.9425 20.7935 23.9472 20.8331 23.9622 20.8692C23.9773 20.9053 24.0021 20.9365 24.034 20.9593C24.0658 20.982 24.1034 20.9954 24.1424 20.998C24.1815 21.0005 24.2205 20.9921 24.255 20.9736L27.9037 19.0574C27.933 19.0405 27.9662 19.0316 28 19.0316C28.0338 19.0316 28.067 19.0405 28.0962 19.0574L31.745 20.9999C31.7795 21.0183 31.8185 21.0267 31.8575 21.0242C31.8966 21.0217 31.9341 21.0083 31.966 20.9855C31.9978 20.9628 32.0227 20.9316 32.0377 20.8955C32.0528 20.8594 32.0575 20.8198 32.0512 20.7811L31.3512 16.7211C31.3477 16.6866 31.3513 16.6516 31.3619 16.6185C31.3724 16.5854 31.3896 16.5548 31.4125 16.5286L34.3612 13.6586C34.3894 13.6315 34.4094 13.597 34.419 13.5591C34.4287 13.5211 34.4275 13.4813 34.4157 13.444C34.4038 13.4067 34.3818 13.3734 34.3521 13.3479C34.3224 13.3225 34.2862 13.3058 34.2475 13.2999L30.17 12.7049C30.1337 12.6975 30.1001 12.6807 30.0724 12.6561C30.0447 12.6315 30.0241 12.6 30.0125 12.5649Z" fill="#1F1F1F"></path><path d="M3.4999 50.0501V54.2501C3.4999 54.4821 3.59208 54.7047 3.75618 54.8688C3.92027 55.0329 4.14283 55.1251 4.3749 55.1251C4.60696 55.1251 4.82952 55.0329 4.99361 54.8688C5.15771 54.7047 5.2499 54.4821 5.2499 54.2501V50.6801C5.44686 50.7106 5.64563 50.7281 5.8449 50.7326H6.02865C6.90365 50.8113 8.14615 50.8638 9.45864 50.8638H10.3336L9.80865 52.1413C9.79293 52.1812 9.78722 52.2243 9.792 52.2669C9.79679 52.3095 9.81192 52.3502 9.83609 52.3856C9.86026 52.421 9.89272 52.4499 9.93064 52.4699C9.96856 52.4898 10.0108 52.5002 10.0536 52.5001H13.9999V54.2501C13.9999 54.4821 14.0921 54.7047 14.2562 54.8688C14.4203 55.0329 14.6428 55.1251 14.8749 55.1251C15.107 55.1251 15.3295 55.0329 15.4936 54.8688C15.6577 54.7047 15.7499 54.4821 15.7499 54.2501V52.5001H20.4749C20.5243 52.5 20.5726 52.486 20.6144 52.4597C20.6562 52.4334 20.6897 52.3958 20.7111 52.3513L22.4611 48.5626H24.1324C24.5889 48.5512 25.0229 48.3618 25.3416 48.0348C25.6604 47.7078 25.8388 47.2692 25.8386 46.8126V45.0626C25.8402 44.7288 25.7464 44.4016 25.5681 44.1194C25.3898 43.8372 25.1345 43.6119 24.8324 43.4701L26.9849 38.8763C27.0034 38.8383 27.0125 38.7963 27.0113 38.754C27.0102 38.7117 26.9988 38.6703 26.9782 38.6334C26.9575 38.5964 26.9283 38.565 26.8929 38.5418C26.8575 38.5186 26.817 38.5043 26.7749 38.5001H15.5136C15.4617 38.4992 15.4109 38.5148 15.3684 38.5447C15.3259 38.5746 15.2941 38.6172 15.2774 38.6663L13.7899 42.3063L10.8586 39.3751C10.6913 39.2317 10.4759 39.1568 10.2557 39.1653C10.0355 39.1738 9.82661 39.2651 9.67078 39.421C9.51494 39.5768 9.42365 39.7857 9.41515 40.0059C9.40664 40.2261 9.48155 40.4414 9.6249 40.6088L13.0724 44.1088L12.8449 44.6688H7.8749C7.64283 44.6688 7.42027 44.5766 7.25618 44.4126C7.09208 44.2485 6.9999 44.0259 6.9999 43.7938V41.1251C6.9999 40.893 6.90771 40.6705 6.74361 40.5064C6.57952 40.3423 6.35696 40.2501 6.1249 40.2501C5.89283 40.2501 5.67027 40.3423 5.50618 40.5064C5.34208 40.6705 5.2499 40.893 5.2499 41.1251V43.7501C5.2499 44.4463 5.52646 45.114 6.01874 45.6062C6.51102 46.0985 7.1787 46.3751 7.8749 46.3751H12.1274L11.0161 49.1051C9.41128 49.1608 7.80455 49.1258 6.20365 49.0001H5.9324C5.31337 49.0088 4.7084 48.8153 4.20937 48.4489C3.71033 48.0825 3.34449 47.5633 3.1674 46.9701C2.4442 43.708 2.4442 40.3272 3.1674 37.0651C3.28216 36.4894 3.59103 35.9705 4.0424 35.5951C4.50657 35.2145 5.08716 35.0045 5.6874 35.0001L8.9599 35.1488H10.1761L13.8161 35.0001C14.3562 35.0248 14.881 35.1873 15.3405 35.4722C15.7999 35.7571 16.1789 36.1548 16.4411 36.6276C16.5179 36.7863 16.6463 36.9143 16.8052 36.9906C16.9642 37.0669 17.1443 37.087 17.3161 37.0476L17.5436 37.0038C17.6604 36.9771 17.7694 36.9234 17.8618 36.8472C17.9542 36.7709 18.0276 36.6741 18.076 36.5645C18.1244 36.4549 18.1466 36.3355 18.1408 36.2158C18.1349 36.0961 18.1013 35.9795 18.0424 35.8751C17.6292 35.0985 17.0167 34.446 16.2678 33.9847C15.5188 33.5233 14.6605 33.2698 13.7811 33.2501L10.0974 33.3988C9.74739 33.3988 9.3974 33.3988 9.04739 33.3988L5.73115 33.2501C4.69979 33.2435 3.70023 33.6067 2.91365 34.2738C2.14231 34.9371 1.61552 35.8398 1.4174 36.8376C0.669788 40.2977 0.669788 43.8775 1.4174 47.3376C1.56459 47.9064 1.82485 48.4397 2.18264 48.9057C2.54043 49.3718 2.98843 49.761 3.4999 50.0501ZM20.8774 46.1913L21.2886 45.3163C21.3226 45.2404 21.3779 45.176 21.4478 45.1309C21.5177 45.0859 21.5992 45.0621 21.6824 45.0626H23.6686C23.7264 45.0614 23.7838 45.0719 23.8375 45.0935C23.8911 45.115 23.9398 45.1472 23.9807 45.1881C24.0215 45.2289 24.0537 45.2776 24.0753 45.3313C24.0968 45.3849 24.1073 45.4423 24.1061 45.5001V46.3751C24.1061 46.4911 24.0601 46.6024 23.978 46.6844C23.896 46.7665 23.7847 46.8126 23.6686 46.8126H21.2711C21.1971 46.8144 21.1238 46.7971 21.0585 46.7622C20.9931 46.7273 20.938 46.6761 20.8983 46.6135C20.8586 46.5509 20.8359 46.4792 20.8322 46.4052C20.8285 46.3312 20.8441 46.2575 20.8774 46.1913Z" fill="#1F1F1F"></path><path d="M9.625 22.75C7.13125 22.75 5.03125 25.1562 5.03125 28C5.03125 30.625 6.8775 32.375 9.625 32.375C12.3725 32.375 14.2188 30.625 14.2188 28C14.2188 25.1562 12.1188 22.75 9.625 22.75ZM9.625 30.625C9.26063 30.6638 8.89219 30.6242 8.54434 30.5091C8.19649 30.3939 7.87725 30.2058 7.608 29.9572C7.33876 29.7087 7.12571 29.4055 6.98313 29.0679C6.84054 28.7304 6.77172 28.3663 6.78125 28C6.78125 26.1363 8.11125 24.5 9.625 24.5C11.1388 24.5 12.4688 26.1363 12.4688 28C12.4783 28.3663 12.4095 28.7304 12.2669 29.0679C12.1243 29.4055 11.9112 29.7087 11.642 29.9572C11.3727 30.2058 11.0535 30.3939 10.7057 30.5091C10.3578 30.6242 9.98937 30.6638 9.625 30.625Z" fill="#1F1F1F"></path><path d="M55.0374 42.0001C55.0335 40.2652 54.8518 38.5353 54.4949 36.8376C54.2968 35.8398 53.77 34.9371 52.9987 34.2738C52.2121 33.6067 51.2125 33.2435 50.1812 33.2501L46.8649 33.3988C46.5149 33.3988 46.1649 33.3988 45.8149 33.3988L42.1312 33.2501C41.2518 33.2698 40.3935 33.5233 39.6446 33.9847C38.8956 34.446 38.2831 35.0985 37.8699 35.8751C37.8163 35.9791 37.787 36.0939 37.7844 36.2109C37.7818 36.3278 37.8058 36.4438 37.8547 36.5501C37.9037 36.6564 37.9762 36.7501 38.0667 36.8242C38.1573 36.8983 38.2636 36.9507 38.3774 36.9776L38.6049 37.0213C38.7768 37.0607 38.9569 37.0406 39.1159 36.9643C39.2748 36.888 39.4032 36.7601 39.4799 36.6013C39.7422 36.1286 40.1211 35.7308 40.5806 35.446C41.0401 35.1611 41.5649 34.9985 42.1049 34.9738L45.7449 35.1226H46.9612L50.2249 35.0001C50.811 35.0074 51.3778 35.2107 51.8349 35.5776C52.2863 35.953 52.5952 36.4719 52.7099 37.0476C53.4331 40.3097 53.4331 43.6905 52.7099 46.9526C52.5376 47.5433 52.1784 48.0622 51.6862 48.4313C51.1939 48.8005 50.5952 49.0001 49.9799 49.0001H49.7087C48.1078 49.1258 46.501 49.1608 44.8962 49.1051L43.7499 46.3751H48.0374C48.7336 46.3751 49.4013 46.0985 49.8936 45.6062C50.3859 45.114 50.6624 44.4463 50.6624 43.7501V41.1251C50.6624 40.893 50.5702 40.6705 50.4061 40.5064C50.242 40.3423 50.0195 40.2501 49.7874 40.2501C49.5554 40.2501 49.3328 40.3423 49.1687 40.5064C49.0046 40.6705 48.9124 40.893 48.9124 41.1251V43.7501C48.9124 43.9822 48.8202 44.2047 48.6561 44.3688C48.492 44.5329 48.2695 44.6251 48.0374 44.6251H43.0674L42.8749 44.0651L46.3224 40.5651C46.4518 40.3927 46.5129 40.1787 46.4942 39.964C46.4756 39.7494 46.3783 39.5491 46.2211 39.4017C46.064 39.2543 45.8579 39.1701 45.6425 39.1652C45.4271 39.1602 45.2174 39.235 45.0537 39.3751L42.1224 42.3063L40.6349 38.6663C40.6182 38.6172 40.5864 38.5746 40.5439 38.5447C40.5014 38.5148 40.4506 38.4992 40.3987 38.5001H29.1374C29.093 38.5001 29.0494 38.5114 29.0106 38.5329C28.9718 38.5544 28.939 38.5854 28.9154 38.623C28.8918 38.6606 28.8782 38.7035 28.8757 38.7478C28.8732 38.7921 28.8819 38.8363 28.9012 38.8763L31.0449 43.4701C30.7444 43.6132 30.491 43.839 30.3143 44.1211C30.1376 44.4032 30.045 44.7298 30.0474 45.0626V46.8126C30.0473 47.2692 30.2256 47.7078 30.5444 48.0348C30.8632 48.3618 31.2972 48.5512 31.7537 48.5626H33.4249L35.1749 52.3513C35.1963 52.3958 35.2298 52.4334 35.2716 52.4597C35.3134 52.486 35.3618 52.5 35.4112 52.5001H40.1362V54.2501C40.1362 54.4821 40.2284 54.7047 40.3925 54.8688C40.5565 55.0329 40.7791 55.1251 41.0112 55.1251C41.2432 55.1251 41.4658 55.0329 41.6299 54.8688C41.794 54.7047 41.8862 54.4821 41.8862 54.2501V52.5001H45.8587C45.9015 52.5002 45.9438 52.4899 45.9817 52.4699C46.0196 52.4499 46.0521 52.421 46.0762 52.3856C46.1004 52.3502 46.1155 52.3095 46.1203 52.2669C46.1251 52.2243 46.1194 52.1812 46.1037 52.1413L45.5787 50.8638H46.4537C47.7662 50.8638 48.9999 50.8113 49.8837 50.7326H50.0674C50.2667 50.7281 50.4655 50.7106 50.6624 50.6801V54.2501C50.6624 54.4821 50.7546 54.7047 50.9187 54.8688C51.0828 55.0329 51.3054 55.1251 51.5374 55.1251C51.7695 55.1251 51.992 55.0329 52.1561 54.8688C52.3202 54.7047 52.4124 54.4821 52.4124 54.2501V50.0501C52.9183 49.7564 53.3601 49.3643 53.7118 48.8969C54.0635 48.4295 54.3179 47.8963 54.4599 47.3288C54.8412 45.5782 55.0348 43.7918 55.0374 42.0001ZM34.6412 46.8126H32.2437C32.1276 46.8126 32.0164 46.7665 31.9343 46.6844C31.8523 46.6024 31.8062 46.4911 31.8062 46.3751V45.5001C31.805 45.4423 31.8155 45.3849 31.837 45.3313C31.8586 45.2776 31.8908 45.2289 31.9317 45.1881C31.9725 45.1472 32.0212 45.115 32.0748 45.0935C32.1285 45.0719 32.1859 45.0614 32.2437 45.0626H34.2299C34.3131 45.0621 34.3946 45.0859 34.4645 45.1309C34.5344 45.176 34.5897 45.2404 34.6237 45.3163L35.0349 46.1913C35.0682 46.2575 35.0838 46.3312 35.0801 46.4052C35.0764 46.4792 35.0537 46.5509 35.014 46.6135C34.9744 46.6761 34.9192 46.7273 34.8538 46.7622C34.7885 46.7971 34.7152 46.8144 34.6412 46.8126Z" fill="#1F1F1F"></path><path d="M46.2876 22.75C43.7938 22.75 41.6938 25.1562 41.6938 28C41.6938 30.625 43.5401 32.375 46.2876 32.375C49.0351 32.375 50.8813 30.625 50.8813 28C50.8813 25.1562 48.7813 22.75 46.2876 22.75ZM46.2876 30.625C45.9232 30.6638 45.5548 30.6242 45.2069 30.5091C44.8591 30.3939 44.5398 30.2058 44.2706 29.9572C44.0014 29.7087 43.7883 29.4055 43.6457 29.0679C43.5031 28.7304 43.4343 28.3663 43.4438 28C43.4438 26.1363 44.7738 24.5 46.2876 24.5C47.8013 24.5 49.1313 26.1363 49.1313 28C49.1409 28.3663 49.0721 28.7304 48.9295 29.0679C48.7869 29.4055 48.5738 29.7087 48.3046 29.9572C48.0353 30.2058 47.7161 30.3939 47.3683 30.5091C47.0204 30.6242 46.652 30.6638 46.2876 30.625Z" fill="#1F1F1F"></path></g><defs><clipPath id="clip0_116_5121"><rect width="56" height="56" fill="white"></rect></clipPath></defs></svg>